M48
METRIC,LZ,000.000
;FILE_FORMAT=3:3
;TYPE=PLATED
;Layer: Drill PTH
;EasyEDA v6.4.20.6, 2021-08-16T11:23:07+05:00
;c3a099c2b70d45deafa0669b64b3af86,5b6d1f2078ba48c69a4fdbf02e9f565d,10
;Gerber Generator version 0.2
;Holesize 1 = 0.762 mm
T01C0.762
;Holesize 2 = 0.813 mm
T02C0.813
;Holesize 3 = 0.889 mm
T03C0.889
;Holesize 4 = 0.900 mm
T04C0.900
;Holesize 5 = 0.915 mm
T05C0.915
;Holesize 6 = 1.000 mm
T06C1.000
;Holesize 7 = 1.143 mm
T07C1.143
;Holesize 8 = 1.199 mm
T08C1.199
;Holesize 9 = 1.200 mm
T09C1.200
;Holesize 10 = 1.270 mm
T10C1.270
;Holesize 11 = 1.301 mm
T11C1.301
;Holesize 12 = 1.401 mm
T12C1.401
%
G05
G90
T01
X031242Y-128524
X028742Y-128524
X033742Y-128524
T02
X034671Y-137414
X036830Y-137414
X038989Y-137414
T03
X070104Y-193675
X072644Y-193675
X075184Y-193675
X077724Y-193675
X080264Y-193675
X082804Y-193675
X085344Y-193675
X087884Y-193675
X090424Y-193675
X010795Y-145034
X010795Y-142494
T04
X031623Y-142748
X041783Y-142748
X017907Y-177038
X028067Y-177038
X028067Y-173736
X017907Y-173736
T05
X022987Y-118999
X020447Y-118999
X034925Y-152781
X034925Y-155321
X034925Y-157861
X034925Y-160401
X034925Y-162941
X034925Y-165481
X034925Y-168021
X034925Y-170561
X034925Y-173101
X034925Y-175641
X034925Y-178181
X034925Y-180721
X034925Y-183261
X034925Y-185801
X034925Y-188341
X050165Y-152781
X050165Y-155321
X050165Y-157861
X050165Y-160401
X050165Y-162941
X050165Y-165481
X050165Y-168021
X050165Y-170561
X050165Y-173101
X050165Y-175641
X050165Y-178181
X050165Y-180721
X050165Y-183261
X050165Y-185801
X050165Y-188341
X010795Y-139954
T06
X011303Y-175641
X013843Y-175641
X034167Y-089761G85X034167Y-089761
X036707Y-089761G85X036707Y-089761
X039247Y-089761G85X039247Y-089761
X041787Y-089761G85X041787Y-089761
X044327Y-089761G85X044327Y-089761
X046867Y-089761G85X046867Y-089761
X049407Y-089761G85X049407Y-089761
X051947Y-089761G85X051947Y-089761
X054487Y-089761G85X054487Y-089761
X057027Y-089761G85X057027Y-089761
X059567Y-089761G85X059567Y-089761
X062107Y-089761G85X062107Y-089761
X064647Y-089761G85X064647Y-089761
X067187Y-089761G85X067187Y-089761
X069727Y-089761G85X069727Y-089761
X072267Y-089761G85X072267Y-089761
T07
X016510Y-108715G85X016510Y-108709
X019050Y-108715G85X019050Y-108709
X013970Y-108715G85X013970Y-108709
T08
X010135Y-183820
X010135Y-188798
X022631Y-188798
X022631Y-183820
T09
X016848Y-100409G85X019348Y-100409
X019348Y-094409G85X016848Y-094409
X013398Y-096159G85X013398Y-098659
T10
X020701Y-126746
X020701Y-136906
X026797Y-143383
X016637Y-143383
T11
X013208Y-117511
X013208Y-122519
X013208Y-129195
X013208Y-134203
T12
X011781Y-165597
X023779Y-165597
X023779Y-153394
X011781Y-153394
X017780Y-151395
M30
