G04 Layer: TopSilkLayer*
G04 EasyEDA v6.4.20.6, 2021-08-16T11:23:07+05:00*
G04 c3a099c2b70d45deafa0669b64b3af86,5b6d1f2078ba48c69a4fdbf02e9f565d,10*
G04 Gerber Generator version 0.2*
G04 Scale: 100 percent, Rotated: No, Reflected: No *
G04 Dimensions in millimeters *
G04 leading zeros omitted , absolute positions ,4 integer and 5 decimal *
%FSLAX45Y45*%
%MOMM*%

%ADD10C,0.2540*%
%ADD28C,0.2286*%
%ADD29C,0.1500*%
%ADD30C,0.2030*%
%ADD31C,0.2032*%
%ADD32C,0.7000*%
%ADD33C,0.5000*%
%ADD34C,0.4000*%
%ADD35C,0.1524*%
%ADD36C,0.3000*%

%LPD*%
D34*
X5727700Y-16397478D02*
D35*
X2388615Y-13106400D02*
G01*
X2279650Y-13106400D01*
X2388615Y-13106400D02*
G01*
X2388615Y-13142721D01*
X2383536Y-13158470D01*
X2373122Y-13168629D01*
X2362708Y-13173963D01*
X2346959Y-13179044D01*
X2321052Y-13179044D01*
X2305558Y-13173963D01*
X2295143Y-13168629D01*
X2284729Y-13158470D01*
X2279650Y-13142721D01*
X2279650Y-13106400D01*
X2367788Y-13213334D02*
G01*
X2373122Y-13223747D01*
X2388615Y-13239495D01*
X2279650Y-13239495D01*
X3454400Y-13283184D02*
G01*
X3454400Y-13392150D01*
X3454400Y-13283184D02*
G01*
X3501136Y-13283184D01*
X3516629Y-13288263D01*
X3521963Y-13293597D01*
X3527043Y-13304012D01*
X3527043Y-13314426D01*
X3521963Y-13324839D01*
X3516629Y-13329920D01*
X3501136Y-13335000D01*
X3454400Y-13335000D02*
G01*
X3501136Y-13335000D01*
X3516629Y-13340334D01*
X3521963Y-13345413D01*
X3527043Y-13355828D01*
X3527043Y-13371576D01*
X3521963Y-13381989D01*
X3516629Y-13387070D01*
X3501136Y-13392150D01*
X3454400Y-13392150D01*
X3639311Y-13309092D02*
G01*
X3634231Y-13298678D01*
X3623818Y-13288263D01*
X3613404Y-13283184D01*
X3592575Y-13283184D01*
X3582161Y-13288263D01*
X3571747Y-13298678D01*
X3566668Y-13309092D01*
X3561334Y-13324839D01*
X3561334Y-13350747D01*
X3566668Y-13366242D01*
X3571747Y-13376655D01*
X3582161Y-13387070D01*
X3592575Y-13392150D01*
X3613404Y-13392150D01*
X3623818Y-13387070D01*
X3634231Y-13376655D01*
X3639311Y-13366242D01*
X3736086Y-13283184D02*
G01*
X3684015Y-13283184D01*
X3678936Y-13329920D01*
X3684015Y-13324839D01*
X3699509Y-13319505D01*
X3715258Y-13319505D01*
X3730752Y-13324839D01*
X3741165Y-13335000D01*
X3746500Y-13350747D01*
X3746500Y-13361162D01*
X3741165Y-13376655D01*
X3730752Y-13387070D01*
X3715258Y-13392150D01*
X3699509Y-13392150D01*
X3684015Y-13387070D01*
X3678936Y-13381989D01*
X3673602Y-13371576D01*
X3832606Y-13283184D02*
G01*
X3780790Y-13355828D01*
X3858513Y-13355828D01*
X3832606Y-13283184D02*
G01*
X3832606Y-13392150D01*
X3965702Y-13283184D02*
G01*
X3913631Y-13392150D01*
X3892804Y-13283184D02*
G01*
X3965702Y-13283184D01*
X3581400Y-14489684D02*
G01*
X3581400Y-14598650D01*
X3581400Y-14489684D02*
G01*
X3628136Y-14489684D01*
X3643629Y-14494763D01*
X3648963Y-14500097D01*
X3654043Y-14510512D01*
X3654043Y-14520926D01*
X3648963Y-14531339D01*
X3643629Y-14536420D01*
X3628136Y-14541500D01*
X3581400Y-14541500D01*
X3617722Y-14541500D02*
G01*
X3654043Y-14598650D01*
X3688334Y-14510512D02*
G01*
X3698747Y-14505178D01*
X3714495Y-14489684D01*
X3714495Y-14598650D01*
X2247900Y-17639284D02*
G01*
X2247900Y-17748250D01*
X2247900Y-17639284D02*
G01*
X2294636Y-17639284D01*
X2310129Y-17644363D01*
X2315463Y-17649698D01*
X2320543Y-17660112D01*
X2320543Y-17670526D01*
X2315463Y-17680939D01*
X2310129Y-17686020D01*
X2294636Y-17691100D01*
X2247900Y-17691100D01*
X2284222Y-17691100D02*
G01*
X2320543Y-17748250D01*
X2360168Y-17665192D02*
G01*
X2360168Y-17660112D01*
X2365247Y-17649698D01*
X2370581Y-17644363D01*
X2380995Y-17639284D01*
X2401570Y-17639284D01*
X2411984Y-17644363D01*
X2417318Y-17649698D01*
X2422397Y-17660112D01*
X2422397Y-17670526D01*
X2417318Y-17680939D01*
X2406904Y-17696434D01*
X2354834Y-17748250D01*
X2427731Y-17748250D01*
X2184400Y-17309084D02*
G01*
X2184400Y-17418050D01*
X2184400Y-17309084D02*
G01*
X2231136Y-17309084D01*
X2246629Y-17314163D01*
X2251963Y-17319498D01*
X2257043Y-17329912D01*
X2257043Y-17340326D01*
X2251963Y-17350739D01*
X2246629Y-17355820D01*
X2231136Y-17360900D01*
X2184400Y-17360900D01*
X2220722Y-17360900D02*
G01*
X2257043Y-17418050D01*
X2301747Y-17309084D02*
G01*
X2358897Y-17309084D01*
X2327909Y-17350739D01*
X2343404Y-17350739D01*
X2353818Y-17355820D01*
X2358897Y-17360900D01*
X2364231Y-17376648D01*
X2364231Y-17387062D01*
X2358897Y-17402555D01*
X2348484Y-17412970D01*
X2332990Y-17418050D01*
X2317495Y-17418050D01*
X2301747Y-17412970D01*
X2296668Y-17407889D01*
X2291334Y-17397476D01*
X2135377Y-12305792D02*
G01*
X2130043Y-12295378D01*
X2119629Y-12284963D01*
X2109470Y-12279884D01*
X2088641Y-12279884D01*
X2078227Y-12284963D01*
X2067813Y-12295378D01*
X2062479Y-12305792D01*
X2057400Y-12321539D01*
X2057400Y-12347447D01*
X2062479Y-12362942D01*
X2067813Y-12373355D01*
X2078227Y-12383770D01*
X2088641Y-12388850D01*
X2109470Y-12388850D01*
X2119629Y-12383770D01*
X2130043Y-12373355D01*
X2135377Y-12362942D01*
X2174747Y-12305792D02*
G01*
X2174747Y-12300712D01*
X2180081Y-12290297D01*
X2185161Y-12284963D01*
X2195575Y-12279884D01*
X2216404Y-12279884D01*
X2226818Y-12284963D01*
X2231897Y-12290297D01*
X2237231Y-12300712D01*
X2237231Y-12311126D01*
X2231897Y-12321539D01*
X2221484Y-12337034D01*
X2169668Y-12388850D01*
X2242311Y-12388850D01*
X1435100Y-10387584D02*
G01*
X1435100Y-10496550D01*
X1435100Y-10496550D02*
G01*
X1497329Y-10496550D01*
X1604518Y-10387584D02*
G01*
X1552447Y-10496550D01*
X1531620Y-10387584D02*
G01*
X1604518Y-10387584D01*
X1664715Y-10387584D02*
G01*
X1649221Y-10392663D01*
X1643887Y-10403078D01*
X1643887Y-10413492D01*
X1649221Y-10423905D01*
X1659636Y-10429239D01*
X1680210Y-10434320D01*
X1695957Y-10439400D01*
X1706371Y-10449813D01*
X1711452Y-10460228D01*
X1711452Y-10475976D01*
X1706371Y-10486389D01*
X1701037Y-10491470D01*
X1685544Y-10496550D01*
X1664715Y-10496550D01*
X1649221Y-10491470D01*
X1643887Y-10486389D01*
X1638807Y-10475976D01*
X1638807Y-10460228D01*
X1643887Y-10449813D01*
X1654302Y-10439400D01*
X1670050Y-10434320D01*
X1690623Y-10429239D01*
X1701037Y-10423905D01*
X1706371Y-10413492D01*
X1706371Y-10403078D01*
X1701037Y-10392663D01*
X1685544Y-10387584D01*
X1664715Y-10387584D01*
X1776984Y-10387584D02*
G01*
X1761489Y-10392663D01*
X1751076Y-10408412D01*
X1745742Y-10434320D01*
X1745742Y-10449813D01*
X1751076Y-10475976D01*
X1761489Y-10491470D01*
X1776984Y-10496550D01*
X1787397Y-10496550D01*
X1802892Y-10491470D01*
X1813305Y-10475976D01*
X1818639Y-10449813D01*
X1818639Y-10434320D01*
X1813305Y-10408412D01*
X1802892Y-10392663D01*
X1787397Y-10387584D01*
X1776984Y-10387584D01*
X1915160Y-10387584D02*
G01*
X1863089Y-10387584D01*
X1858010Y-10434320D01*
X1863089Y-10429239D01*
X1878837Y-10423905D01*
X1894331Y-10423905D01*
X1910079Y-10429239D01*
X1920239Y-10439400D01*
X1925573Y-10455147D01*
X1925573Y-10465562D01*
X1920239Y-10481055D01*
X1910079Y-10491470D01*
X1894331Y-10496550D01*
X1878837Y-10496550D01*
X1863089Y-10491470D01*
X1858010Y-10486389D01*
X1852929Y-10475976D01*
X8036813Y-19099784D02*
G01*
X8093963Y-19099784D01*
X8062722Y-19141440D01*
X8078470Y-19141440D01*
X8088629Y-19146520D01*
X8093963Y-19151600D01*
X8099043Y-19167348D01*
X8099043Y-19177761D01*
X8093963Y-19193256D01*
X8083550Y-19203670D01*
X8068056Y-19208750D01*
X8052308Y-19208750D01*
X8036813Y-19203670D01*
X8031479Y-19198590D01*
X8026400Y-19188175D01*
X8133334Y-19099784D02*
G01*
X8206231Y-19208750D01*
X8206231Y-19099784D02*
G01*
X8133334Y-19208750D01*
X8292338Y-19099784D02*
G01*
X8240522Y-19172427D01*
X8318500Y-19172427D01*
X8292338Y-19099784D02*
G01*
X8292338Y-19208750D01*
X8352790Y-19162013D02*
G01*
X8446261Y-19162013D01*
X8480552Y-19099784D02*
G01*
X8480552Y-19208750D01*
X8553195Y-19099784D02*
G01*
X8480552Y-19172427D01*
X8506459Y-19146520D02*
G01*
X8553195Y-19208750D01*
X8587486Y-19099784D02*
G01*
X8587486Y-19208750D01*
X8587486Y-19099784D02*
G01*
X8634222Y-19099784D01*
X8649970Y-19104863D01*
X8655050Y-19110198D01*
X8660129Y-19120611D01*
X8660129Y-19131025D01*
X8655050Y-19141440D01*
X8649970Y-19146520D01*
X8634222Y-19151600D01*
X8587486Y-19151600D02*
G01*
X8634222Y-19151600D01*
X8649970Y-19156934D01*
X8655050Y-19162013D01*
X8660129Y-19172427D01*
X8660129Y-19188175D01*
X8655050Y-19198590D01*
X8649970Y-19203670D01*
X8634222Y-19208750D01*
X8587486Y-19208750D01*
X3009900Y-13181584D02*
G01*
X3009900Y-13290550D01*
X3009900Y-13181584D02*
G01*
X3056636Y-13181584D01*
X3072129Y-13186663D01*
X3077463Y-13191997D01*
X3082543Y-13202412D01*
X3082543Y-13212826D01*
X3077463Y-13223239D01*
X3072129Y-13228320D01*
X3056636Y-13233400D01*
X3009900Y-13233400D02*
G01*
X3056636Y-13233400D01*
X3072129Y-13238734D01*
X3077463Y-13243813D01*
X3082543Y-13254228D01*
X3082543Y-13269976D01*
X3077463Y-13280389D01*
X3072129Y-13285470D01*
X3056636Y-13290550D01*
X3009900Y-13290550D01*
X3116834Y-13181584D02*
G01*
X3116834Y-13290550D01*
X3116834Y-13181584D02*
G01*
X3163570Y-13181584D01*
X3179318Y-13186663D01*
X3184397Y-13191997D01*
X3189731Y-13202412D01*
X3189731Y-13212826D01*
X3184397Y-13223239D01*
X3179318Y-13228320D01*
X3163570Y-13233400D01*
X3116834Y-13233400D01*
X3153409Y-13233400D02*
G01*
X3189731Y-13290550D01*
X3224022Y-13181584D02*
G01*
X3224022Y-13290550D01*
X2433134Y-9359137D02*
G01*
X2324168Y-9359137D01*
X2433134Y-9359137D02*
G01*
X2433134Y-9395460D01*
X2428054Y-9411208D01*
X2417640Y-9421368D01*
X2407226Y-9426702D01*
X2391478Y-9431781D01*
X2365570Y-9431781D01*
X2350076Y-9426702D01*
X2339662Y-9421368D01*
X2329248Y-9411208D01*
X2324168Y-9395460D01*
X2324168Y-9359137D01*
X2407226Y-9544050D02*
G01*
X2417640Y-9538970D01*
X2428054Y-9528555D01*
X2433134Y-9518142D01*
X2433134Y-9497313D01*
X2428054Y-9486900D01*
X2417640Y-9476486D01*
X2407226Y-9471405D01*
X2391478Y-9466071D01*
X2365570Y-9466071D01*
X2350076Y-9471405D01*
X2339662Y-9476486D01*
X2329248Y-9486900D01*
X2324168Y-9497313D01*
X2324168Y-9518142D01*
X2329248Y-9528555D01*
X2339662Y-9538970D01*
X2350076Y-9544050D01*
X2412306Y-9578339D02*
G01*
X2417640Y-9588754D01*
X2433134Y-9604247D01*
X2324168Y-9604247D01*
X2407226Y-9643871D02*
G01*
X2412306Y-9643871D01*
X2422720Y-9648952D01*
X2428054Y-9654286D01*
X2433134Y-9664700D01*
X2433134Y-9685528D01*
X2428054Y-9695687D01*
X2422720Y-9701021D01*
X2412306Y-9706102D01*
X2401892Y-9706102D01*
X2391478Y-9701021D01*
X2375984Y-9690608D01*
X2324168Y-9638537D01*
X2324168Y-9711436D01*
X2433134Y-9745726D02*
G01*
X2324168Y-9787128D01*
X2433134Y-9828784D02*
G01*
X2324168Y-9787128D01*
X3762756Y-14705584D02*
G01*
X3721100Y-14814550D01*
X3762756Y-14705584D02*
G01*
X3804158Y-14814550D01*
X3736593Y-14778228D02*
G01*
X3788663Y-14778228D01*
X3838447Y-14705584D02*
G01*
X3838447Y-14814550D01*
X3838447Y-14705584D02*
G01*
X3885184Y-14705584D01*
X3900931Y-14710663D01*
X3906011Y-14715997D01*
X3911345Y-14726412D01*
X3911345Y-14736826D01*
X3906011Y-14747239D01*
X3900931Y-14752320D01*
X3885184Y-14757400D01*
X3838447Y-14757400D01*
X3874770Y-14757400D02*
G01*
X3911345Y-14814550D01*
X3945636Y-14705584D02*
G01*
X3945636Y-14814550D01*
X3945636Y-14705584D02*
G01*
X3981958Y-14705584D01*
X3997452Y-14710663D01*
X4007865Y-14721078D01*
X4013200Y-14731492D01*
X4018279Y-14747239D01*
X4018279Y-14773147D01*
X4013200Y-14788642D01*
X4007865Y-14799055D01*
X3997452Y-14809470D01*
X3981958Y-14814550D01*
X3945636Y-14814550D01*
X4052570Y-14705584D02*
G01*
X4052570Y-14783562D01*
X4057650Y-14799055D01*
X4068063Y-14809470D01*
X4083811Y-14814550D01*
X4094225Y-14814550D01*
X4109720Y-14809470D01*
X4120134Y-14799055D01*
X4125213Y-14783562D01*
X4125213Y-14705584D01*
X4159504Y-14705584D02*
G01*
X4159504Y-14814550D01*
X4193793Y-14705584D02*
G01*
X4193793Y-14814550D01*
X4193793Y-14705584D02*
G01*
X4266691Y-14814550D01*
X4266691Y-14705584D02*
G01*
X4266691Y-14814550D01*
X4331970Y-14705584D02*
G01*
X4321809Y-14710663D01*
X4311395Y-14721078D01*
X4306061Y-14731492D01*
X4300981Y-14747239D01*
X4300981Y-14773147D01*
X4306061Y-14788642D01*
X4311395Y-14799055D01*
X4321809Y-14809470D01*
X4331970Y-14814550D01*
X4352797Y-14814550D01*
X4363211Y-14809470D01*
X4373625Y-14799055D01*
X4378959Y-14788642D01*
X4384040Y-14773147D01*
X4384040Y-14747239D01*
X4378959Y-14731492D01*
X4373625Y-14721078D01*
X4363211Y-14710663D01*
X4352797Y-14705584D01*
X4331970Y-14705584D01*
X4418329Y-14767813D02*
G01*
X4511802Y-14767813D01*
X4546091Y-14705584D02*
G01*
X4546091Y-14814550D01*
X4546091Y-14705584D02*
G01*
X4618990Y-14814550D01*
X4618990Y-14705584D02*
G01*
X4618990Y-14814550D01*
X4694681Y-14705584D02*
G01*
X4653279Y-14814550D01*
X4694681Y-14705584D02*
G01*
X4736338Y-14814550D01*
X4668774Y-14778228D02*
G01*
X4720590Y-14778228D01*
X4770627Y-14705584D02*
G01*
X4770627Y-14814550D01*
X4770627Y-14705584D02*
G01*
X4843272Y-14814550D01*
X4843272Y-14705584D02*
G01*
X4843272Y-14814550D01*
X4908804Y-14705584D02*
G01*
X4898390Y-14710663D01*
X4887975Y-14721078D01*
X4882895Y-14731492D01*
X4877561Y-14747239D01*
X4877561Y-14773147D01*
X4882895Y-14788642D01*
X4887975Y-14799055D01*
X4898390Y-14809470D01*
X4908804Y-14814550D01*
X4929631Y-14814550D01*
X4940045Y-14809470D01*
X4950459Y-14799055D01*
X4955540Y-14788642D01*
X4960620Y-14773147D01*
X4960620Y-14747239D01*
X4955540Y-14731492D01*
X4950459Y-14721078D01*
X4940045Y-14710663D01*
X4929631Y-14705584D01*
X4908804Y-14705584D01*
D31*
X2822702Y-15195042D02*
G01*
X2822702Y-15292070D01*
X2822702Y-15195042D02*
G01*
X2854959Y-15195042D01*
X2868929Y-15199613D01*
X2878074Y-15208757D01*
X2882645Y-15218155D01*
X2887472Y-15231871D01*
X2887472Y-15254986D01*
X2882645Y-15268955D01*
X2878074Y-15278100D01*
X2868929Y-15287244D01*
X2854959Y-15292070D01*
X2822702Y-15292070D01*
X2917952Y-15213584D02*
G01*
X2927095Y-15208757D01*
X2940811Y-15195042D01*
X2940811Y-15292070D01*
X3054604Y-15176500D02*
G01*
X2971291Y-15324328D01*
X3117341Y-15195042D02*
G01*
X3117341Y-15292070D01*
X3085084Y-15195042D02*
G01*
X3149600Y-15195042D01*
X3180079Y-15195042D02*
G01*
X3244850Y-15292070D01*
X3244850Y-15195042D02*
G01*
X3180079Y-15292070D01*
X5365241Y-15499842D02*
G01*
X5360670Y-15490444D01*
X5351272Y-15481300D01*
X5342127Y-15476728D01*
X5323586Y-15476728D01*
X5314441Y-15481300D01*
X5305043Y-15490444D01*
X5300472Y-15499842D01*
X5295900Y-15513557D01*
X5295900Y-15536671D01*
X5300472Y-15550642D01*
X5305043Y-15559786D01*
X5314441Y-15568929D01*
X5323586Y-15573755D01*
X5342127Y-15573755D01*
X5351272Y-15568929D01*
X5360670Y-15559786D01*
X5365241Y-15550642D01*
X5365241Y-15536671D01*
X5342127Y-15536671D02*
G01*
X5365241Y-15536671D01*
X5395722Y-15476728D02*
G01*
X5395722Y-15573755D01*
X5395722Y-15476728D02*
G01*
X5460238Y-15573755D01*
X5460238Y-15476728D02*
G01*
X5460238Y-15573755D01*
X5490718Y-15476728D02*
G01*
X5490718Y-15573755D01*
X5490718Y-15476728D02*
G01*
X5523229Y-15476728D01*
X5536945Y-15481300D01*
X5546090Y-15490444D01*
X5550915Y-15499842D01*
X5555488Y-15513557D01*
X5555488Y-15536671D01*
X5550915Y-15550642D01*
X5546090Y-15559786D01*
X5536945Y-15568929D01*
X5523229Y-15573755D01*
X5490718Y-15573755D01*
X5337556Y-16023844D02*
G01*
X5337556Y-16107155D01*
X5295900Y-16065500D02*
G01*
X5378958Y-16065500D01*
X5464809Y-16010128D02*
G01*
X5418836Y-16010128D01*
X5414009Y-16051529D01*
X5418836Y-16046957D01*
X5432552Y-16042386D01*
X5446522Y-16042386D01*
X5460238Y-16046957D01*
X5469636Y-16056355D01*
X5474208Y-16070071D01*
X5474208Y-16079470D01*
X5469636Y-16093186D01*
X5460238Y-16102329D01*
X5446522Y-16107155D01*
X5432552Y-16107155D01*
X5418836Y-16102329D01*
X5414009Y-16097757D01*
X5409438Y-16088613D01*
X5504688Y-16010128D02*
G01*
X5541518Y-16107155D01*
X5578602Y-16010128D02*
G01*
X5541518Y-16107155D01*
X2583434Y-18778727D02*
G01*
X2583434Y-18875756D01*
X2583434Y-18778727D02*
G01*
X2615691Y-18778727D01*
X2629661Y-18783300D01*
X2638806Y-18792443D01*
X2643377Y-18801841D01*
X2648204Y-18815558D01*
X2648204Y-18838672D01*
X2643377Y-18852641D01*
X2638806Y-18861786D01*
X2629661Y-18870929D01*
X2615691Y-18875756D01*
X2583434Y-18875756D01*
X2678684Y-18797270D02*
G01*
X2687827Y-18792443D01*
X2701543Y-18778727D01*
X2701543Y-18875756D01*
X2736850Y-18801841D02*
G01*
X2736850Y-18797270D01*
X2741422Y-18787872D01*
X2745993Y-18783300D01*
X2755138Y-18778727D01*
X2773679Y-18778727D01*
X2782824Y-18783300D01*
X2787650Y-18787872D01*
X2792222Y-18797270D01*
X2792222Y-18806413D01*
X2787650Y-18815558D01*
X2778252Y-18829527D01*
X2732024Y-18875756D01*
X2796793Y-18875756D01*
X2910331Y-18760186D02*
G01*
X2827274Y-18908013D01*
X2940811Y-18778727D02*
G01*
X2940811Y-18875756D01*
X2940811Y-18778727D02*
G01*
X2977895Y-18875756D01*
X3014725Y-18778727D02*
G01*
X2977895Y-18875756D01*
X3014725Y-18778727D02*
G01*
X3014725Y-18875756D01*
X3045206Y-18778727D02*
G01*
X3045206Y-18875756D01*
X3140456Y-18792443D02*
G01*
X3131058Y-18783300D01*
X3117341Y-18778727D01*
X3098800Y-18778727D01*
X3085084Y-18783300D01*
X3075686Y-18792443D01*
X3075686Y-18801841D01*
X3080258Y-18810986D01*
X3085084Y-18815558D01*
X3094227Y-18820129D01*
X3121913Y-18829527D01*
X3131058Y-18834100D01*
X3135884Y-18838672D01*
X3140456Y-18848070D01*
X3140456Y-18861786D01*
X3131058Y-18870929D01*
X3117341Y-18875756D01*
X3098800Y-18875756D01*
X3085084Y-18870929D01*
X3075686Y-18861786D01*
X3198622Y-18778727D02*
G01*
X3189224Y-18783300D01*
X3180079Y-18792443D01*
X3175508Y-18801841D01*
X3170936Y-18815558D01*
X3170936Y-18838672D01*
X3175508Y-18852641D01*
X3180079Y-18861786D01*
X3189224Y-18870929D01*
X3198622Y-18875756D01*
X3217163Y-18875756D01*
X3226308Y-18870929D01*
X3235452Y-18861786D01*
X3240024Y-18852641D01*
X3244850Y-18838672D01*
X3244850Y-18815558D01*
X3240024Y-18801841D01*
X3235452Y-18792443D01*
X3226308Y-18783300D01*
X3217163Y-18778727D01*
X3198622Y-18778727D01*
X5295900Y-15222728D02*
G01*
X5332729Y-15319755D01*
X5369813Y-15222728D02*
G01*
X5332729Y-15319755D01*
X5400293Y-15222728D02*
G01*
X5400293Y-15319755D01*
X5430774Y-15222728D02*
G01*
X5430774Y-15319755D01*
X5430774Y-15222728D02*
G01*
X5495290Y-15319755D01*
X5495290Y-15222728D02*
G01*
X5495290Y-15319755D01*
X5295900Y-18804127D02*
G01*
X5295900Y-18901156D01*
X5295900Y-18804127D02*
G01*
X5328158Y-18804127D01*
X5342127Y-18808700D01*
X5351272Y-18817843D01*
X5355843Y-18827241D01*
X5360670Y-18840958D01*
X5360670Y-18864072D01*
X5355843Y-18878041D01*
X5351272Y-18887186D01*
X5342127Y-18896329D01*
X5328158Y-18901156D01*
X5295900Y-18901156D01*
X5391150Y-18822670D02*
G01*
X5400293Y-18817843D01*
X5414009Y-18804127D01*
X5414009Y-18901156D01*
X5453888Y-18804127D02*
G01*
X5504688Y-18804127D01*
X5477002Y-18840958D01*
X5490718Y-18840958D01*
X5500115Y-18845529D01*
X5504688Y-18850356D01*
X5509259Y-18864072D01*
X5509259Y-18873470D01*
X5504688Y-18887186D01*
X5495290Y-18896329D01*
X5481574Y-18901156D01*
X5467604Y-18901156D01*
X5453888Y-18896329D01*
X5449315Y-18891758D01*
X5444490Y-18882613D01*
X5622797Y-18785586D02*
G01*
X5539740Y-18933413D01*
X5718047Y-18817843D02*
G01*
X5708650Y-18808700D01*
X5694934Y-18804127D01*
X5676391Y-18804127D01*
X5662675Y-18808700D01*
X5653277Y-18817843D01*
X5653277Y-18827241D01*
X5657850Y-18836386D01*
X5662675Y-18840958D01*
X5671820Y-18845529D01*
X5699506Y-18854927D01*
X5708650Y-18859500D01*
X5713475Y-18864072D01*
X5718047Y-18873470D01*
X5718047Y-18887186D01*
X5708650Y-18896329D01*
X5694934Y-18901156D01*
X5676391Y-18901156D01*
X5662675Y-18896329D01*
X5653277Y-18887186D01*
X5817870Y-18827241D02*
G01*
X5813043Y-18817843D01*
X5803900Y-18808700D01*
X5794756Y-18804127D01*
X5776213Y-18804127D01*
X5767070Y-18808700D01*
X5757672Y-18817843D01*
X5753100Y-18827241D01*
X5748527Y-18840958D01*
X5748527Y-18864072D01*
X5753100Y-18878041D01*
X5757672Y-18887186D01*
X5767070Y-18896329D01*
X5776213Y-18901156D01*
X5794756Y-18901156D01*
X5803900Y-18896329D01*
X5813043Y-18887186D01*
X5817870Y-18878041D01*
X5848350Y-18804127D02*
G01*
X5848350Y-18901156D01*
X5912865Y-18804127D02*
G01*
X5848350Y-18868643D01*
X5871209Y-18845529D02*
G01*
X5912865Y-18901156D01*
X3054604Y-16007842D02*
G01*
X3050031Y-15998444D01*
X3040634Y-15989300D01*
X3031490Y-15984728D01*
X3012947Y-15984728D01*
X3003804Y-15989300D01*
X2994406Y-15998444D01*
X2989834Y-16007842D01*
X2985261Y-16021557D01*
X2985261Y-16044671D01*
X2989834Y-16058642D01*
X2994406Y-16067786D01*
X3003804Y-16076929D01*
X3012947Y-16081755D01*
X3031490Y-16081755D01*
X3040634Y-16076929D01*
X3050031Y-16067786D01*
X3054604Y-16058642D01*
X3054604Y-16044671D01*
X3031490Y-16044671D02*
G01*
X3054604Y-16044671D01*
X3085084Y-15984728D02*
G01*
X3085084Y-16081755D01*
X3085084Y-15984728D02*
G01*
X3149600Y-16081755D01*
X3149600Y-15984728D02*
G01*
X3149600Y-16081755D01*
X3180079Y-15984728D02*
G01*
X3180079Y-16081755D01*
X3180079Y-15984728D02*
G01*
X3212591Y-15984728D01*
X3226308Y-15989300D01*
X3235452Y-15998444D01*
X3240277Y-16007842D01*
X3244850Y-16021557D01*
X3244850Y-16044671D01*
X3240277Y-16058642D01*
X3235452Y-16067786D01*
X3226308Y-16076929D01*
X3212591Y-16081755D01*
X3180079Y-16081755D01*
X2781300Y-15499842D02*
G01*
X2781300Y-15596870D01*
X2781300Y-15499842D02*
G01*
X2813558Y-15499842D01*
X2827527Y-15504413D01*
X2836672Y-15513557D01*
X2841243Y-15522955D01*
X2846070Y-15536671D01*
X2846070Y-15559786D01*
X2841243Y-15573755D01*
X2836672Y-15582900D01*
X2827527Y-15592044D01*
X2813558Y-15596870D01*
X2781300Y-15596870D01*
X2904236Y-15499842D02*
G01*
X2890265Y-15504413D01*
X2881122Y-15518384D01*
X2876550Y-15541244D01*
X2876550Y-15555213D01*
X2881122Y-15578328D01*
X2890265Y-15592044D01*
X2904236Y-15596870D01*
X2913379Y-15596870D01*
X2927350Y-15592044D01*
X2936493Y-15578328D01*
X2941065Y-15555213D01*
X2941065Y-15541244D01*
X2936493Y-15518384D01*
X2927350Y-15504413D01*
X2913379Y-15499842D01*
X2904236Y-15499842D01*
X3054604Y-15481300D02*
G01*
X2971545Y-15629128D01*
X3085084Y-15499842D02*
G01*
X3085084Y-15596870D01*
X3085084Y-15499842D02*
G01*
X3126740Y-15499842D01*
X3140709Y-15504413D01*
X3145281Y-15508986D01*
X3149854Y-15518384D01*
X3149854Y-15527528D01*
X3145281Y-15536671D01*
X3140709Y-15541244D01*
X3126740Y-15546070D01*
X3085084Y-15546070D01*
X3117595Y-15546070D02*
G01*
X3149854Y-15596870D01*
X3180334Y-15499842D02*
G01*
X3244850Y-15596870D01*
X3244850Y-15499842D02*
G01*
X3180334Y-15596870D01*
X2808986Y-15735300D02*
G01*
X2808986Y-15832328D01*
X2808986Y-15735300D02*
G01*
X2850641Y-15735300D01*
X2864358Y-15739871D01*
X2868929Y-15744444D01*
X2873756Y-15753842D01*
X2873756Y-15762986D01*
X2868929Y-15772129D01*
X2864358Y-15776702D01*
X2850641Y-15781528D01*
X2808986Y-15781528D01*
X2841243Y-15781528D02*
G01*
X2873756Y-15832328D01*
X2904236Y-15735300D02*
G01*
X2904236Y-15832328D01*
X2904236Y-15735300D02*
G01*
X2964179Y-15735300D01*
X2904236Y-15781528D02*
G01*
X2941065Y-15781528D01*
X2904236Y-15832328D02*
G01*
X2964179Y-15832328D01*
X3059175Y-15749016D02*
G01*
X3050031Y-15739871D01*
X3036315Y-15735300D01*
X3017774Y-15735300D01*
X3003804Y-15739871D01*
X2994659Y-15749016D01*
X2994659Y-15758413D01*
X2999231Y-15767557D01*
X3003804Y-15772129D01*
X3013202Y-15776702D01*
X3040888Y-15786100D01*
X3050031Y-15790671D01*
X3054604Y-15795244D01*
X3059175Y-15804642D01*
X3059175Y-15818357D01*
X3050031Y-15827502D01*
X3036315Y-15832328D01*
X3017774Y-15832328D01*
X3003804Y-15827502D01*
X2994659Y-15818357D01*
X3089656Y-15735300D02*
G01*
X3089656Y-15832328D01*
X3089656Y-15735300D02*
G01*
X3149854Y-15735300D01*
X3089656Y-15781528D02*
G01*
X3126740Y-15781528D01*
X3089656Y-15832328D02*
G01*
X3149854Y-15832328D01*
X3212591Y-15735300D02*
G01*
X3212591Y-15832328D01*
X3180334Y-15735300D02*
G01*
X3244850Y-15735300D01*
X3085084Y-16238728D02*
G01*
X3085084Y-16335755D01*
X3085084Y-16238728D02*
G01*
X3117341Y-16238728D01*
X3131311Y-16243300D01*
X3140456Y-16252444D01*
X3145027Y-16261842D01*
X3149854Y-16275557D01*
X3149854Y-16298671D01*
X3145027Y-16312642D01*
X3140456Y-16321786D01*
X3131311Y-16330929D01*
X3117341Y-16335755D01*
X3085084Y-16335755D01*
X3184906Y-16261842D02*
G01*
X3184906Y-16257270D01*
X3189477Y-16247871D01*
X3194050Y-16243300D01*
X3203193Y-16238728D01*
X3221736Y-16238728D01*
X3231134Y-16243300D01*
X3235706Y-16247871D01*
X3240277Y-16257270D01*
X3240277Y-16266413D01*
X3235706Y-16275557D01*
X3226308Y-16289528D01*
X3180334Y-16335755D01*
X3244850Y-16335755D01*
X3085084Y-16492728D02*
G01*
X3085084Y-16589755D01*
X3085084Y-16492728D02*
G01*
X3117341Y-16492728D01*
X3131311Y-16497300D01*
X3140456Y-16506444D01*
X3145027Y-16515842D01*
X3149854Y-16529557D01*
X3149854Y-16552671D01*
X3145027Y-16566642D01*
X3140456Y-16575786D01*
X3131311Y-16584929D01*
X3117341Y-16589755D01*
X3085084Y-16589755D01*
X3189477Y-16492728D02*
G01*
X3240277Y-16492728D01*
X3212591Y-16529557D01*
X3226308Y-16529557D01*
X3235706Y-16534129D01*
X3240277Y-16538955D01*
X3244850Y-16552671D01*
X3244850Y-16562070D01*
X3240277Y-16575786D01*
X3231134Y-16584929D01*
X3217163Y-16589755D01*
X3203193Y-16589755D01*
X3189477Y-16584929D01*
X3184906Y-16580357D01*
X3180334Y-16571213D01*
X3080511Y-16746728D02*
G01*
X3080511Y-16843755D01*
X3080511Y-16746728D02*
G01*
X3112770Y-16746728D01*
X3126740Y-16751300D01*
X3135884Y-16760444D01*
X3140456Y-16769842D01*
X3145281Y-16783558D01*
X3145281Y-16806671D01*
X3140456Y-16820642D01*
X3135884Y-16829786D01*
X3126740Y-16838929D01*
X3112770Y-16843755D01*
X3080511Y-16843755D01*
X3221736Y-16746728D02*
G01*
X3175761Y-16811244D01*
X3244850Y-16811244D01*
X3221736Y-16746728D02*
G01*
X3221736Y-16843755D01*
X3085084Y-16975328D02*
G01*
X3085084Y-17072355D01*
X3085084Y-16975328D02*
G01*
X3117341Y-16975328D01*
X3131311Y-16979900D01*
X3140456Y-16989044D01*
X3145027Y-16998442D01*
X3149854Y-17012158D01*
X3149854Y-17035271D01*
X3145027Y-17049242D01*
X3140456Y-17058386D01*
X3131311Y-17067529D01*
X3117341Y-17072355D01*
X3085084Y-17072355D01*
X3235706Y-16975328D02*
G01*
X3189477Y-16975328D01*
X3184906Y-17016729D01*
X3189477Y-17012158D01*
X3203193Y-17007586D01*
X3217163Y-17007586D01*
X3231134Y-17012158D01*
X3240277Y-17021555D01*
X3244850Y-17035271D01*
X3244850Y-17044670D01*
X3240277Y-17058386D01*
X3231134Y-17067529D01*
X3217163Y-17072355D01*
X3203193Y-17072355D01*
X3189477Y-17067529D01*
X3184906Y-17062958D01*
X3180334Y-17053813D01*
X3089656Y-17229328D02*
G01*
X3089656Y-17326355D01*
X3089656Y-17229328D02*
G01*
X3121913Y-17229328D01*
X3135884Y-17233900D01*
X3145027Y-17243044D01*
X3149600Y-17252442D01*
X3154425Y-17266158D01*
X3154425Y-17289271D01*
X3149600Y-17303242D01*
X3145027Y-17312386D01*
X3135884Y-17321529D01*
X3121913Y-17326355D01*
X3089656Y-17326355D01*
X3240277Y-17243044D02*
G01*
X3235706Y-17233900D01*
X3221736Y-17229328D01*
X3212591Y-17229328D01*
X3198622Y-17233900D01*
X3189477Y-17247870D01*
X3184906Y-17270729D01*
X3184906Y-17293844D01*
X3189477Y-17312386D01*
X3198622Y-17321529D01*
X3212591Y-17326355D01*
X3217163Y-17326355D01*
X3230879Y-17321529D01*
X3240277Y-17312386D01*
X3244850Y-17298670D01*
X3244850Y-17293844D01*
X3240277Y-17280128D01*
X3230879Y-17270729D01*
X3217163Y-17266158D01*
X3212591Y-17266158D01*
X3198622Y-17270729D01*
X3189477Y-17280128D01*
X3184906Y-17293844D01*
X3085084Y-17508728D02*
G01*
X3085084Y-17605755D01*
X3085084Y-17508728D02*
G01*
X3117341Y-17508728D01*
X3131311Y-17513300D01*
X3140456Y-17522444D01*
X3145027Y-17531842D01*
X3149854Y-17545558D01*
X3149854Y-17568671D01*
X3145027Y-17582642D01*
X3140456Y-17591786D01*
X3131311Y-17600929D01*
X3117341Y-17605755D01*
X3085084Y-17605755D01*
X3244850Y-17508728D02*
G01*
X3198622Y-17605755D01*
X3180334Y-17508728D02*
G01*
X3244850Y-17508728D01*
X3085084Y-17737328D02*
G01*
X3085084Y-17834355D01*
X3085084Y-17737328D02*
G01*
X3117341Y-17737328D01*
X3131311Y-17741900D01*
X3140456Y-17751044D01*
X3145027Y-17760442D01*
X3149854Y-17774158D01*
X3149854Y-17797271D01*
X3145027Y-17811242D01*
X3140456Y-17820386D01*
X3131311Y-17829529D01*
X3117341Y-17834355D01*
X3085084Y-17834355D01*
X3203193Y-17737328D02*
G01*
X3189477Y-17741900D01*
X3184906Y-17751044D01*
X3184906Y-17760442D01*
X3189477Y-17769586D01*
X3198622Y-17774158D01*
X3217163Y-17778729D01*
X3231134Y-17783555D01*
X3240277Y-17792700D01*
X3244850Y-17801844D01*
X3244850Y-17815813D01*
X3240277Y-17824958D01*
X3235706Y-17829529D01*
X3221736Y-17834355D01*
X3203193Y-17834355D01*
X3189477Y-17829529D01*
X3184906Y-17824958D01*
X3180334Y-17815813D01*
X3180334Y-17801844D01*
X3184906Y-17792700D01*
X3194050Y-17783555D01*
X3208020Y-17778729D01*
X3226308Y-17774158D01*
X3235706Y-17769586D01*
X3240277Y-17760442D01*
X3240277Y-17751044D01*
X3235706Y-17741900D01*
X3221736Y-17737328D01*
X3203193Y-17737328D01*
X3089656Y-17991327D02*
G01*
X3089656Y-18088356D01*
X3089656Y-17991327D02*
G01*
X3121913Y-17991327D01*
X3135884Y-17995900D01*
X3145027Y-18005043D01*
X3149600Y-18014441D01*
X3154425Y-18028158D01*
X3154425Y-18051272D01*
X3149600Y-18065241D01*
X3145027Y-18074386D01*
X3135884Y-18083529D01*
X3121913Y-18088356D01*
X3089656Y-18088356D01*
X3244850Y-18023586D02*
G01*
X3240277Y-18037556D01*
X3230879Y-18046700D01*
X3217163Y-18051272D01*
X3212591Y-18051272D01*
X3198622Y-18046700D01*
X3189477Y-18037556D01*
X3184906Y-18023586D01*
X3184906Y-18019013D01*
X3189477Y-18005043D01*
X3198622Y-17995900D01*
X3212591Y-17991327D01*
X3217163Y-17991327D01*
X3230879Y-17995900D01*
X3240277Y-18005043D01*
X3244850Y-18023586D01*
X3244850Y-18046700D01*
X3240277Y-18069813D01*
X3230879Y-18083529D01*
X3217163Y-18088356D01*
X3207765Y-18088356D01*
X3194050Y-18083529D01*
X3189477Y-18074386D01*
X3031490Y-18270727D02*
G01*
X3031490Y-18367756D01*
X3031490Y-18270727D02*
G01*
X3063747Y-18270727D01*
X3077718Y-18275300D01*
X3086861Y-18284443D01*
X3091434Y-18293841D01*
X3096259Y-18307558D01*
X3096259Y-18330672D01*
X3091434Y-18344641D01*
X3086861Y-18353786D01*
X3077718Y-18362929D01*
X3063747Y-18367756D01*
X3031490Y-18367756D01*
X3126740Y-18289270D02*
G01*
X3135884Y-18284443D01*
X3149600Y-18270727D01*
X3149600Y-18367756D01*
X3208020Y-18270727D02*
G01*
X3194050Y-18275300D01*
X3184906Y-18289270D01*
X3180079Y-18312129D01*
X3180079Y-18326100D01*
X3184906Y-18349213D01*
X3194050Y-18362929D01*
X3208020Y-18367756D01*
X3217163Y-18367756D01*
X3230879Y-18362929D01*
X3240277Y-18349213D01*
X3244850Y-18326100D01*
X3244850Y-18312129D01*
X3240277Y-18289270D01*
X3230879Y-18275300D01*
X3217163Y-18270727D01*
X3208020Y-18270727D01*
X2625090Y-18499327D02*
G01*
X2625090Y-18596356D01*
X2625090Y-18499327D02*
G01*
X2657347Y-18499327D01*
X2671318Y-18503900D01*
X2680461Y-18513043D01*
X2685034Y-18522441D01*
X2689859Y-18536158D01*
X2689859Y-18559272D01*
X2685034Y-18573241D01*
X2680461Y-18582386D01*
X2671318Y-18591529D01*
X2657347Y-18596356D01*
X2625090Y-18596356D01*
X2720340Y-18517870D02*
G01*
X2729484Y-18513043D01*
X2743200Y-18499327D01*
X2743200Y-18596356D01*
X2773679Y-18517870D02*
G01*
X2783077Y-18513043D01*
X2796793Y-18499327D01*
X2796793Y-18596356D01*
X2910586Y-18480786D02*
G01*
X2827274Y-18628613D01*
X2941065Y-18499327D02*
G01*
X2941065Y-18596356D01*
X2941065Y-18499327D02*
G01*
X2977895Y-18596356D01*
X3014979Y-18499327D02*
G01*
X2977895Y-18596356D01*
X3014979Y-18499327D02*
G01*
X3014979Y-18596356D01*
X3073145Y-18499327D02*
G01*
X3063747Y-18503900D01*
X3054604Y-18513043D01*
X3050031Y-18522441D01*
X3045459Y-18536158D01*
X3045459Y-18559272D01*
X3050031Y-18573241D01*
X3054604Y-18582386D01*
X3063747Y-18591529D01*
X3073145Y-18596356D01*
X3091434Y-18596356D01*
X3100831Y-18591529D01*
X3109975Y-18582386D01*
X3114547Y-18573241D01*
X3119120Y-18559272D01*
X3119120Y-18536158D01*
X3114547Y-18522441D01*
X3109975Y-18513043D01*
X3100831Y-18503900D01*
X3091434Y-18499327D01*
X3073145Y-18499327D01*
X3214370Y-18513043D02*
G01*
X3205225Y-18503900D01*
X3191256Y-18499327D01*
X3172713Y-18499327D01*
X3158997Y-18503900D01*
X3149600Y-18513043D01*
X3149600Y-18522441D01*
X3154425Y-18531586D01*
X3158997Y-18536158D01*
X3168141Y-18540729D01*
X3195827Y-18550127D01*
X3205225Y-18554700D01*
X3209797Y-18559272D01*
X3214370Y-18568670D01*
X3214370Y-18582386D01*
X3205225Y-18591529D01*
X3191256Y-18596356D01*
X3172713Y-18596356D01*
X3158997Y-18591529D01*
X3149600Y-18582386D01*
X3244850Y-18499327D02*
G01*
X3244850Y-18596356D01*
X5305043Y-18550127D02*
G01*
X5355843Y-18550127D01*
X5328158Y-18586958D01*
X5342127Y-18586958D01*
X5351272Y-18591529D01*
X5355843Y-18596356D01*
X5360670Y-18610072D01*
X5360670Y-18619470D01*
X5355843Y-18633186D01*
X5346700Y-18642329D01*
X5332729Y-18647156D01*
X5319013Y-18647156D01*
X5305043Y-18642329D01*
X5300472Y-18637758D01*
X5295900Y-18628613D01*
X5391150Y-18550127D02*
G01*
X5427979Y-18647156D01*
X5464809Y-18550127D02*
G01*
X5427979Y-18647156D01*
X5504688Y-18550127D02*
G01*
X5555488Y-18550127D01*
X5527802Y-18586958D01*
X5541518Y-18586958D01*
X5550915Y-18591529D01*
X5555488Y-18596356D01*
X5560059Y-18610072D01*
X5560059Y-18619470D01*
X5555488Y-18633186D01*
X5546090Y-18642329D01*
X5532374Y-18647156D01*
X5518404Y-18647156D01*
X5504688Y-18642329D01*
X5500115Y-18637758D01*
X5495290Y-18628613D01*
X5332729Y-18270727D02*
G01*
X5295900Y-18367756D01*
X5332729Y-18270727D02*
G01*
X5369813Y-18367756D01*
X5309870Y-18335243D02*
G01*
X5355843Y-18335243D01*
X5400293Y-18270727D02*
G01*
X5400293Y-18367756D01*
X5400293Y-18270727D02*
G01*
X5441950Y-18270727D01*
X5455665Y-18275300D01*
X5460238Y-18279872D01*
X5464809Y-18289270D01*
X5464809Y-18298413D01*
X5460238Y-18307558D01*
X5455665Y-18312129D01*
X5441950Y-18316956D01*
X5400293Y-18316956D01*
X5432552Y-18316956D02*
G01*
X5464809Y-18367756D01*
X5495290Y-18270727D02*
G01*
X5495290Y-18367756D01*
X5495290Y-18270727D02*
G01*
X5555488Y-18270727D01*
X5495290Y-18316956D02*
G01*
X5532374Y-18316956D01*
X5495290Y-18367756D02*
G01*
X5555488Y-18367756D01*
X5585968Y-18270727D02*
G01*
X5585968Y-18367756D01*
X5585968Y-18270727D02*
G01*
X5645911Y-18270727D01*
X5585968Y-18316956D02*
G01*
X5622797Y-18316956D01*
X5332729Y-18042127D02*
G01*
X5295900Y-18139156D01*
X5332729Y-18042127D02*
G01*
X5369813Y-18139156D01*
X5309870Y-18106643D02*
G01*
X5355843Y-18106643D01*
X5427979Y-18042127D02*
G01*
X5414009Y-18046700D01*
X5404865Y-18060670D01*
X5400293Y-18083529D01*
X5400293Y-18097500D01*
X5404865Y-18120613D01*
X5414009Y-18134329D01*
X5427979Y-18139156D01*
X5437124Y-18139156D01*
X5451093Y-18134329D01*
X5460238Y-18120613D01*
X5464809Y-18097500D01*
X5464809Y-18083529D01*
X5460238Y-18060670D01*
X5451093Y-18046700D01*
X5437124Y-18042127D01*
X5427979Y-18042127D01*
X5332729Y-17762728D02*
G01*
X5295900Y-17859755D01*
X5332729Y-17762728D02*
G01*
X5369813Y-17859755D01*
X5309870Y-17827244D02*
G01*
X5355843Y-17827244D01*
X5400293Y-17781270D02*
G01*
X5409438Y-17776444D01*
X5423408Y-17762728D01*
X5423408Y-17859755D01*
X5332729Y-17534128D02*
G01*
X5295900Y-17631155D01*
X5332729Y-17534128D02*
G01*
X5369813Y-17631155D01*
X5309870Y-17598644D02*
G01*
X5355843Y-17598644D01*
X5404865Y-17557242D02*
G01*
X5404865Y-17552670D01*
X5409438Y-17543271D01*
X5414009Y-17538700D01*
X5423408Y-17534128D01*
X5441950Y-17534128D01*
X5451093Y-17538700D01*
X5455665Y-17543271D01*
X5460238Y-17552670D01*
X5460238Y-17561813D01*
X5455665Y-17570958D01*
X5446522Y-17584928D01*
X5400293Y-17631155D01*
X5464809Y-17631155D01*
X5332729Y-17254728D02*
G01*
X5295900Y-17351755D01*
X5332729Y-17254728D02*
G01*
X5369813Y-17351755D01*
X5309870Y-17319244D02*
G01*
X5355843Y-17319244D01*
X5409438Y-17254728D02*
G01*
X5460238Y-17254728D01*
X5432552Y-17291558D01*
X5446522Y-17291558D01*
X5455665Y-17296129D01*
X5460238Y-17300955D01*
X5464809Y-17314671D01*
X5464809Y-17324070D01*
X5460238Y-17337786D01*
X5451093Y-17346929D01*
X5437124Y-17351755D01*
X5423408Y-17351755D01*
X5409438Y-17346929D01*
X5404865Y-17342358D01*
X5400293Y-17333213D01*
X5332729Y-17000728D02*
G01*
X5295900Y-17097755D01*
X5332729Y-17000728D02*
G01*
X5369813Y-17097755D01*
X5309870Y-17065244D02*
G01*
X5355843Y-17065244D01*
X5446522Y-17000728D02*
G01*
X5400293Y-17065244D01*
X5469636Y-17065244D01*
X5446522Y-17000728D02*
G01*
X5446522Y-17097755D01*
X5332729Y-16746728D02*
G01*
X5295900Y-16843755D01*
X5332729Y-16746728D02*
G01*
X5369813Y-16843755D01*
X5309870Y-16811244D02*
G01*
X5355843Y-16811244D01*
X5455665Y-16746728D02*
G01*
X5409438Y-16746728D01*
X5404865Y-16788129D01*
X5409438Y-16783558D01*
X5423408Y-16778986D01*
X5437124Y-16778986D01*
X5451093Y-16783558D01*
X5460238Y-16792955D01*
X5464809Y-16806671D01*
X5464809Y-16816070D01*
X5460238Y-16829786D01*
X5451093Y-16838929D01*
X5437124Y-16843755D01*
X5423408Y-16843755D01*
X5409438Y-16838929D01*
X5404865Y-16834358D01*
X5400293Y-16825213D01*
X5332729Y-16518128D02*
G01*
X5295900Y-16615155D01*
X5332729Y-16518128D02*
G01*
X5369813Y-16615155D01*
X5309870Y-16582644D02*
G01*
X5355843Y-16582644D01*
X5455665Y-16531844D02*
G01*
X5451093Y-16522700D01*
X5437124Y-16518128D01*
X5427979Y-16518128D01*
X5414009Y-16522700D01*
X5404865Y-16536670D01*
X5400293Y-16559529D01*
X5400293Y-16582644D01*
X5404865Y-16601186D01*
X5414009Y-16610329D01*
X5427979Y-16615155D01*
X5432552Y-16615155D01*
X5446522Y-16610329D01*
X5455665Y-16601186D01*
X5460238Y-16587470D01*
X5460238Y-16582644D01*
X5455665Y-16568928D01*
X5446522Y-16559529D01*
X5432552Y-16554957D01*
X5427979Y-16554957D01*
X5414009Y-16559529D01*
X5404865Y-16568928D01*
X5400293Y-16582644D01*
X5332729Y-16238728D02*
G01*
X5295900Y-16335755D01*
X5332729Y-16238728D02*
G01*
X5369813Y-16335755D01*
X5309870Y-16303244D02*
G01*
X5355843Y-16303244D01*
X5464809Y-16238728D02*
G01*
X5418836Y-16335755D01*
X5400293Y-16238728D02*
G01*
X5464809Y-16238728D01*
X5295900Y-15730728D02*
G01*
X5295900Y-15827755D01*
X5295900Y-15730728D02*
G01*
X5337556Y-15730728D01*
X5351272Y-15735300D01*
X5355843Y-15739871D01*
X5360670Y-15749270D01*
X5360670Y-15758413D01*
X5355843Y-15767557D01*
X5351272Y-15772129D01*
X5337556Y-15776955D01*
X5295900Y-15776955D01*
X5328158Y-15776955D02*
G01*
X5360670Y-15827755D01*
X5391150Y-15730728D02*
G01*
X5391150Y-15827755D01*
X5391150Y-15730728D02*
G01*
X5451093Y-15730728D01*
X5391150Y-15776955D02*
G01*
X5427979Y-15776955D01*
X5391150Y-15827755D02*
G01*
X5451093Y-15827755D01*
X5546090Y-15744444D02*
G01*
X5536945Y-15735300D01*
X5523229Y-15730728D01*
X5504688Y-15730728D01*
X5490718Y-15735300D01*
X5481574Y-15744444D01*
X5481574Y-15753842D01*
X5486145Y-15762986D01*
X5490718Y-15767557D01*
X5500115Y-15772129D01*
X5527802Y-15781528D01*
X5536945Y-15786100D01*
X5541518Y-15790671D01*
X5546090Y-15800070D01*
X5546090Y-15813786D01*
X5536945Y-15822929D01*
X5523229Y-15827755D01*
X5504688Y-15827755D01*
X5490718Y-15822929D01*
X5481574Y-15813786D01*
X5576570Y-15730728D02*
G01*
X5576570Y-15827755D01*
X5576570Y-15730728D02*
G01*
X5636768Y-15730728D01*
X5576570Y-15776955D02*
G01*
X5613654Y-15776955D01*
X5576570Y-15827755D02*
G01*
X5636768Y-15827755D01*
X5699506Y-15730728D02*
G01*
X5699506Y-15827755D01*
X5667247Y-15730728D02*
G01*
X5731763Y-15730728D01*
D35*
X990600Y-17067784D02*
G01*
X990600Y-17176750D01*
X990600Y-17067784D02*
G01*
X1037336Y-17067784D01*
X1052829Y-17072863D01*
X1058163Y-17078198D01*
X1063244Y-17088612D01*
X1063244Y-17104105D01*
X1058163Y-17114520D01*
X1052829Y-17119600D01*
X1037336Y-17124934D01*
X990600Y-17124934D01*
X1128776Y-17067784D02*
G01*
X1118362Y-17072863D01*
X1107947Y-17083278D01*
X1102868Y-17093692D01*
X1097534Y-17109439D01*
X1097534Y-17135348D01*
X1102868Y-17150842D01*
X1107947Y-17161255D01*
X1118362Y-17171670D01*
X1128776Y-17176750D01*
X1149604Y-17176750D01*
X1160018Y-17171670D01*
X1170431Y-17161255D01*
X1175512Y-17150842D01*
X1180845Y-17135348D01*
X1180845Y-17109439D01*
X1175512Y-17093692D01*
X1170431Y-17083278D01*
X1160018Y-17072863D01*
X1149604Y-17067784D01*
X1128776Y-17067784D01*
X1215136Y-17067784D02*
G01*
X1241044Y-17176750D01*
X1266952Y-17067784D02*
G01*
X1241044Y-17176750D01*
X1266952Y-17067784D02*
G01*
X1292860Y-17176750D01*
X1319021Y-17067784D02*
G01*
X1292860Y-17176750D01*
X1353312Y-17067784D02*
G01*
X1353312Y-17176750D01*
X1353312Y-17067784D02*
G01*
X1420876Y-17067784D01*
X1353312Y-17119600D02*
G01*
X1394713Y-17119600D01*
X1353312Y-17176750D02*
G01*
X1420876Y-17176750D01*
X1455165Y-17067784D02*
G01*
X1455165Y-17176750D01*
X1455165Y-17067784D02*
G01*
X1501902Y-17067784D01*
X1517395Y-17072863D01*
X1522729Y-17078198D01*
X1527810Y-17088612D01*
X1527810Y-17099026D01*
X1522729Y-17109439D01*
X1517395Y-17114520D01*
X1501902Y-17119600D01*
X1455165Y-17119600D01*
X1491487Y-17119600D02*
G01*
X1527810Y-17176750D01*
X2095500Y-14007084D02*
G01*
X2095500Y-14116050D01*
X2095500Y-14007084D02*
G01*
X2131822Y-14007084D01*
X2147570Y-14012163D01*
X2157729Y-14022578D01*
X2163063Y-14032992D01*
X2168143Y-14048739D01*
X2168143Y-14074647D01*
X2163063Y-14090142D01*
X2157729Y-14100555D01*
X2147570Y-14110970D01*
X2131822Y-14116050D01*
X2095500Y-14116050D01*
X2264918Y-14022578D02*
G01*
X2259584Y-14012163D01*
X2244090Y-14007084D01*
X2233675Y-14007084D01*
X2218181Y-14012163D01*
X2207768Y-14027912D01*
X2202434Y-14053820D01*
X2202434Y-14079728D01*
X2207768Y-14100555D01*
X2218181Y-14110970D01*
X2233675Y-14116050D01*
X2239009Y-14116050D01*
X2254504Y-14110970D01*
X2264918Y-14100555D01*
X2269997Y-14085062D01*
X2269997Y-14079728D01*
X2264918Y-14064234D01*
X2254504Y-14053820D01*
X2239009Y-14048739D01*
X2233675Y-14048739D01*
X2218181Y-14053820D01*
X2207768Y-14064234D01*
X2202434Y-14079728D01*
X890015Y-11887200D02*
G01*
X781050Y-11887200D01*
X890015Y-11887200D02*
G01*
X890015Y-11933936D01*
X884936Y-11949429D01*
X879602Y-11954763D01*
X869187Y-11959844D01*
X853694Y-11959844D01*
X843279Y-11954763D01*
X838200Y-11949429D01*
X832865Y-11933936D01*
X832865Y-11887200D01*
X890015Y-11994134D02*
G01*
X812037Y-11994134D01*
X796544Y-11999468D01*
X786129Y-12009881D01*
X781050Y-12025376D01*
X781050Y-12035789D01*
X786129Y-12051284D01*
X796544Y-12061697D01*
X812037Y-12067031D01*
X890015Y-12067031D01*
X890015Y-12101321D02*
G01*
X781050Y-12101321D01*
X890015Y-12101321D02*
G01*
X781050Y-12142724D01*
X890015Y-12184379D02*
G01*
X781050Y-12142724D01*
X890015Y-12184379D02*
G01*
X781050Y-12184379D01*
X890015Y-12218670D02*
G01*
X781050Y-12218670D01*
X890015Y-12218670D02*
G01*
X890015Y-12265405D01*
X884936Y-12280900D01*
X879602Y-12286234D01*
X869187Y-12291313D01*
X853694Y-12291313D01*
X843279Y-12286234D01*
X838200Y-12280900D01*
X832865Y-12265405D01*
X832865Y-12218670D01*
X902715Y-13004800D02*
G01*
X793750Y-13046455D01*
X902715Y-13087858D02*
G01*
X793750Y-13046455D01*
X902715Y-13163804D02*
G01*
X793750Y-13122147D01*
X902715Y-13163804D02*
G01*
X793750Y-13205460D01*
X830071Y-13137895D02*
G01*
X830071Y-13189712D01*
X902715Y-13239750D02*
G01*
X793750Y-13239750D01*
X793750Y-13239750D02*
G01*
X793750Y-13301979D01*
X902715Y-13336270D02*
G01*
X793750Y-13377926D01*
X902715Y-13419328D02*
G01*
X793750Y-13377926D01*
X902715Y-13453618D02*
G01*
X793750Y-13453618D01*
X902715Y-13453618D02*
G01*
X902715Y-13521181D01*
X850900Y-13453618D02*
G01*
X850900Y-13495274D01*
X793750Y-13453618D02*
G01*
X793750Y-13521181D01*
X1333500Y-14789912D02*
G01*
X1343913Y-14784578D01*
X1359407Y-14769084D01*
X1359407Y-14878050D01*
X1399031Y-14794992D02*
G01*
X1399031Y-14789912D01*
X1404112Y-14779497D01*
X1409445Y-14774163D01*
X1419860Y-14769084D01*
X1440434Y-14769084D01*
X1450847Y-14774163D01*
X1456181Y-14779497D01*
X1461262Y-14789912D01*
X1461262Y-14800326D01*
X1456181Y-14810739D01*
X1445768Y-14826234D01*
X1393697Y-14878050D01*
X1466595Y-14878050D01*
X1500886Y-14769084D02*
G01*
X1542287Y-14878050D01*
X1583944Y-14769084D02*
G01*
X1542287Y-14878050D01*
X1618234Y-14831313D02*
G01*
X1711705Y-14831313D01*
X1745995Y-14769084D02*
G01*
X1745995Y-14878050D01*
X1745995Y-14769084D02*
G01*
X1792731Y-14769084D01*
X1808479Y-14774163D01*
X1813560Y-14779497D01*
X1818639Y-14789912D01*
X1818639Y-14800326D01*
X1813560Y-14810739D01*
X1808479Y-14815820D01*
X1792731Y-14820900D01*
X1745995Y-14820900D01*
X1782318Y-14820900D02*
G01*
X1818639Y-14878050D01*
X1852929Y-14769084D02*
G01*
X1852929Y-14878050D01*
X1852929Y-14769084D02*
G01*
X1920494Y-14769084D01*
X1852929Y-14820900D02*
G01*
X1894586Y-14820900D01*
X1852929Y-14878050D02*
G01*
X1920494Y-14878050D01*
X1954784Y-14769084D02*
G01*
X1954784Y-14878050D01*
X1954784Y-14878050D02*
G01*
X2017268Y-14878050D01*
X2092959Y-14769084D02*
G01*
X2051558Y-14878050D01*
X2092959Y-14769084D02*
G01*
X2134615Y-14878050D01*
X2067052Y-14841728D02*
G01*
X2119122Y-14841728D01*
X2168906Y-14769084D02*
G01*
X2210561Y-14820900D01*
X2210561Y-14878050D01*
X2251963Y-14769084D02*
G01*
X2210561Y-14820900D01*
D34*
X1282954Y-19345402D02*
G01*
X1264665Y-19327113D01*
X1237487Y-19317970D01*
X1201165Y-19317970D01*
X1173987Y-19327113D01*
X1155700Y-19345402D01*
X1155700Y-19363436D01*
X1164844Y-19381724D01*
X1173987Y-19390868D01*
X1192021Y-19400011D01*
X1246631Y-19418045D01*
X1264665Y-19427190D01*
X1273810Y-19436334D01*
X1282954Y-19454368D01*
X1282954Y-19481800D01*
X1264665Y-19499834D01*
X1237487Y-19508977D01*
X1201165Y-19508977D01*
X1173987Y-19499834D01*
X1155700Y-19481800D01*
X1406652Y-19317970D02*
G01*
X1406652Y-19508977D01*
X1342897Y-19317970D02*
G01*
X1470152Y-19317970D01*
X1602994Y-19317970D02*
G01*
X1530350Y-19508977D01*
X1602994Y-19317970D02*
G01*
X1675637Y-19508977D01*
X1557528Y-19445477D02*
G01*
X1648460Y-19445477D01*
X1735581Y-19317970D02*
G01*
X1735581Y-19508977D01*
X1735581Y-19317970D02*
G01*
X1817623Y-19317970D01*
X1844802Y-19327113D01*
X1853945Y-19336258D01*
X1863089Y-19354545D01*
X1863089Y-19372579D01*
X1853945Y-19390868D01*
X1844802Y-19400011D01*
X1817623Y-19408902D01*
X1735581Y-19408902D01*
X1799336Y-19408902D02*
G01*
X1863089Y-19508977D01*
X1986534Y-19317970D02*
G01*
X1986534Y-19508977D01*
X1923034Y-19317970D02*
G01*
X2050288Y-19317970D01*
D35*
X1357121Y-14258544D02*
G01*
X1367536Y-14248129D01*
X1372615Y-14232636D01*
X1372615Y-14211807D01*
X1367536Y-14196313D01*
X1357121Y-14185900D01*
X1346707Y-14185900D01*
X1336294Y-14190979D01*
X1330960Y-14196313D01*
X1325879Y-14206728D01*
X1315465Y-14237970D01*
X1310386Y-14248129D01*
X1305052Y-14253463D01*
X1294637Y-14258544D01*
X1279144Y-14258544D01*
X1268729Y-14248129D01*
X1263650Y-14232636D01*
X1263650Y-14211807D01*
X1268729Y-14196313D01*
X1279144Y-14185900D01*
X1372615Y-14292834D02*
G01*
X1263650Y-14292834D01*
X1372615Y-14292834D02*
G01*
X1263650Y-14365731D01*
X1372615Y-14365731D02*
G01*
X1263650Y-14365731D01*
D36*
X5651500Y-9679431D02*
G01*
X5651500Y-9965944D01*
X5651500Y-9965944D02*
G01*
X5815075Y-9965944D01*
X6109715Y-9747758D02*
G01*
X6096000Y-9720326D01*
X6068822Y-9693147D01*
X6041390Y-9679431D01*
X5987034Y-9679431D01*
X5959602Y-9693147D01*
X5932424Y-9720326D01*
X5918708Y-9747758D01*
X5905245Y-9788652D01*
X5905245Y-9856724D01*
X5918708Y-9897618D01*
X5932424Y-9925050D01*
X5959602Y-9952228D01*
X5987034Y-9965944D01*
X6041390Y-9965944D01*
X6068822Y-9952228D01*
X6096000Y-9925050D01*
X6109715Y-9897618D01*
X6199631Y-9679431D02*
G01*
X6199631Y-9965944D01*
X6199631Y-9679431D02*
G01*
X6295136Y-9679431D01*
X6336029Y-9693147D01*
X6363208Y-9720326D01*
X6376924Y-9747758D01*
X6390640Y-9788652D01*
X6390640Y-9856724D01*
X6376924Y-9897618D01*
X6363208Y-9925050D01*
X6336029Y-9952228D01*
X6295136Y-9965944D01*
X6199631Y-9965944D01*
X6494272Y-9747758D02*
G01*
X6494272Y-9734042D01*
X6507988Y-9706863D01*
X6521450Y-9693147D01*
X6548881Y-9679431D01*
X6603238Y-9679431D01*
X6630670Y-9693147D01*
X6644131Y-9706863D01*
X6657847Y-9734042D01*
X6657847Y-9761220D01*
X6644131Y-9788652D01*
X6616954Y-9829545D01*
X6480556Y-9965944D01*
X6671563Y-9965944D01*
X6761479Y-9679431D02*
G01*
X6952488Y-9965944D01*
X6952488Y-9679431D02*
G01*
X6761479Y-9965944D01*
X7042404Y-9734042D02*
G01*
X7069581Y-9720326D01*
X7110475Y-9679431D01*
X7110475Y-9965944D01*
X7364222Y-9720326D02*
G01*
X7350506Y-9693147D01*
X7309611Y-9679431D01*
X7282434Y-9679431D01*
X7241540Y-9693147D01*
X7214108Y-9734042D01*
X7200645Y-9802113D01*
X7200645Y-9870439D01*
X7214108Y-9925050D01*
X7241540Y-9952228D01*
X7282434Y-9965944D01*
X7296150Y-9965944D01*
X7337043Y-9952228D01*
X7364222Y-9925050D01*
X7377938Y-9883902D01*
X7377938Y-9870439D01*
X7364222Y-9829545D01*
X7337043Y-9802113D01*
X7296150Y-9788652D01*
X7282434Y-9788652D01*
X7241540Y-9802113D01*
X7214108Y-9829545D01*
X7200645Y-9870439D01*
G36*
X1955800Y-11671300D02*
G01*
X1944319Y-11682222D01*
X1933397Y-11693702D01*
X1923084Y-11705742D01*
X1913432Y-11718340D01*
X1904390Y-11731345D01*
X1896059Y-11744858D01*
X1888439Y-11758726D01*
X1881530Y-11773001D01*
X1875383Y-11787632D01*
X1869998Y-11802516D01*
X1865375Y-11817705D01*
X1861515Y-11833047D01*
X1858518Y-11848642D01*
X1856282Y-11864289D01*
X1854860Y-11880088D01*
X1854250Y-11895937D01*
X1854454Y-11911787D01*
X1855470Y-11927586D01*
X1857298Y-11943334D01*
X1859940Y-11958980D01*
X1861515Y-11966752D01*
X1865375Y-11982094D01*
X1869998Y-11997283D01*
X1875383Y-12012168D01*
X1881530Y-12026798D01*
X1888439Y-12041073D01*
X1896059Y-12054941D01*
X1904390Y-12068454D01*
X1913432Y-12081459D01*
X1923084Y-12094057D01*
X1933397Y-12106097D01*
X1944319Y-12117578D01*
X1955800Y-12128500D01*
G37*
D28*
X2247900Y-12801600D02*
G01*
X2247900Y-13563600D01*
X1892300Y-13563600D01*
X1892300Y-12801600D01*
X2247900Y-12801600D01*
X2247900Y-13500100D02*
G01*
X1892300Y-13500100D01*
D10*
X3474720Y-13906500D02*
G01*
X3891279Y-13906500D01*
X3416300Y-13766800D02*
G01*
X3456940Y-13766800D01*
X3909059Y-13766800D02*
G01*
X3949700Y-13766800D01*
X3355340Y-14394179D02*
G01*
X3355340Y-14155420D01*
X3355340Y-14155420D02*
G01*
X3985259Y-14155420D01*
X3985259Y-14155420D02*
G01*
X3985259Y-14394179D01*
X3985259Y-14394179D02*
G01*
X3355340Y-14394179D01*
X1983740Y-17823179D02*
G01*
X1983740Y-17584420D01*
X1983740Y-17584420D02*
G01*
X2613659Y-17584420D01*
X2613659Y-17584420D02*
G01*
X2613659Y-17823179D01*
X2613659Y-17823179D02*
G01*
X1983740Y-17823179D01*
X2613659Y-17254220D02*
G01*
X2613659Y-17492979D01*
X2613659Y-17492979D02*
G01*
X1983740Y-17492979D01*
X1983740Y-17492979D02*
G01*
X1983740Y-17254220D01*
X1983740Y-17254220D02*
G01*
X2613659Y-17254220D01*
X2476500Y-11899900D02*
G01*
X2374900Y-11899900D01*
X2425700Y-11950700D02*
G01*
X2425700Y-11849100D01*
D29*
X2133600Y-10706100D02*
G01*
X2133600Y-11049000D01*
X1168400Y-10706100D02*
G01*
X1168400Y-11049000D01*
X2184400Y-10591800D02*
G01*
X1117600Y-10591800D01*
X1828800Y-10693400D02*
G01*
X1828800Y-10566400D01*
X1473200Y-10693400D02*
G01*
X1473200Y-10566400D01*
X1117600Y-10706100D02*
G01*
X2184400Y-10706100D01*
X1117600Y-10566400D02*
G01*
X2184400Y-10566400D01*
X2184400Y-11049000D01*
X1117600Y-11049000D01*
X1117600Y-10566400D01*
D30*
X8915400Y-19240500D02*
G01*
X7073900Y-19240500D01*
D31*
X8915400Y-19240500D02*
G01*
X9169400Y-19240500D01*
X9169400Y-19494500D01*
X6883400Y-19494500D01*
X6883400Y-19240500D01*
X7073900Y-19240500D01*
D10*
X2649199Y-12607396D02*
G01*
X3599200Y-12607396D01*
X2843796Y-12725400D02*
G01*
X2843796Y-12687300D01*
X2843796Y-12649200D01*
X2843796Y-12687300D01*
X2649199Y-12607396D02*
G01*
X2649199Y-13097403D01*
X2649199Y-13102399D01*
X2698699Y-13102399D01*
X2698699Y-13052399D01*
X3549700Y-13052399D01*
X3549700Y-13102399D01*
X3599733Y-13102399D01*
X3599733Y-13097403D01*
X3599733Y-12607396D01*
X1359829Y-8650902D02*
G01*
X2259830Y-8650899D01*
X2259830Y-8650899D02*
G01*
X2259830Y-10090937D01*
X2259830Y-10090937D02*
G01*
X1359832Y-10090937D01*
X1359829Y-10090937D02*
G01*
X1359829Y-8650899D01*
X1359832Y-9020937D02*
G01*
X2259830Y-9020937D01*
X1489829Y-9028937D02*
G01*
X1489829Y-10090937D01*
X2129807Y-9028937D02*
G01*
X2129807Y-10090937D01*
X3365500Y-19215100D02*
G01*
X5143500Y-19215100D01*
X5143500Y-19215100D02*
G01*
X5143500Y-14897100D01*
X5143500Y-14897100D02*
G01*
X3365500Y-14897100D01*
X3365500Y-14897100D02*
G01*
X3365500Y-19215100D01*
X3873500Y-18834100D02*
G01*
X3873500Y-19596100D01*
X4635500Y-19596100D01*
X4635500Y-18834100D01*
X3873500Y-18834100D01*
X1511300Y-17754600D02*
G01*
X1511300Y-17373600D01*
X1130300Y-17411700D02*
G01*
X1181100Y-17411700D01*
X1155700Y-17386300D02*
G01*
X1155700Y-17437100D01*
D28*
X2552700Y-14516100D02*
G01*
X1790700Y-14516100D01*
X1790700Y-14160500D01*
X2552700Y-14160500D01*
X2552700Y-14516100D01*
X1854200Y-14516100D02*
G01*
X1854200Y-14160500D01*
D10*
X1720722Y-11477066D02*
G01*
X1720722Y-12527051D01*
X1721738Y-12527051D02*
G01*
X961720Y-12527051D01*
X1574698Y-11477066D02*
G01*
X1574698Y-12527051D01*
X1075715Y-11477066D02*
G01*
X1075715Y-12527051D01*
X1710893Y-12149048D02*
G01*
X1656892Y-12149048D01*
X1656892Y-12302032D01*
X1710893Y-12302032D01*
X1713890Y-11667236D02*
G01*
X1659889Y-11667236D01*
X1659889Y-11820220D01*
X1713890Y-11820220D01*
X958722Y-11477066D02*
G01*
X958722Y-12527051D01*
X1012723Y-11477066D02*
G01*
X1012723Y-12527051D01*
X1718741Y-11474069D02*
G01*
X958722Y-11474069D01*
X1720722Y-12645466D02*
G01*
X1720722Y-13695451D01*
X1721738Y-13695451D02*
G01*
X961720Y-13695451D01*
X1574698Y-12645466D02*
G01*
X1574698Y-13695451D01*
X1075715Y-12645466D02*
G01*
X1075715Y-13695451D01*
X1710893Y-13317448D02*
G01*
X1656892Y-13317448D01*
X1656892Y-13470432D01*
X1710893Y-13470432D01*
X1713890Y-12835636D02*
G01*
X1659889Y-12835636D01*
X1659889Y-12988620D01*
X1713890Y-12988620D01*
X958722Y-12645466D02*
G01*
X958722Y-13695451D01*
X1012723Y-12645466D02*
G01*
X1012723Y-13695451D01*
X1718741Y-12642469D02*
G01*
X958722Y-12642469D01*
X937999Y-14939700D02*
G01*
X2618000Y-14939698D01*
X937999Y-16989699D02*
G01*
X2618000Y-16989699D01*
X937999Y-16989699D02*
G01*
X937999Y-14939700D01*
X2618000Y-16989699D02*
G01*
X2618000Y-14939700D01*
X1786153Y-15299601D02*
G01*
X1786153Y-16245230D01*
X2058009Y-16619550D01*
X2217999Y-16559598D02*
G01*
X2067991Y-16559529D01*
X1338000Y-16559598D02*
G01*
X1478000Y-16559529D01*
X1038860Y-18232120D02*
G01*
X1038860Y-18130520D01*
X1137920Y-18031459D02*
G01*
X2138679Y-18031459D01*
X2237740Y-18130520D02*
G01*
X2237740Y-18232120D01*
X2237740Y-18531840D02*
G01*
X2237740Y-18729959D01*
X2237740Y-19029679D02*
G01*
X2237740Y-19131279D01*
X2138679Y-19230340D02*
G01*
X1137920Y-19230340D01*
X1038860Y-19131279D02*
G01*
X1038860Y-19029679D01*
X1038860Y-18729959D02*
G01*
X1038860Y-18531840D01*
D31*
X952500Y-14122400D02*
G01*
X952500Y-13868400D01*
X1203960Y-13868400D01*
X1203960Y-14630400D01*
X952500Y-14630400D01*
X952500Y-14122400D01*
X2626715Y-8736101D02*
G01*
X10606684Y-8736101D01*
X10606684Y-12316104D01*
X2626715Y-12316104D01*
X2626715Y-8736101D01*
D10*
G75*
G01*
X3473541Y-13906500D02*
G02*
X3604369Y-13486552I209462J165099D01*
G75*
G01*
X3761679Y-13486559D02*
G02*
X3892499Y-13906500I-78627J-254841D01*
G75*
G01*
X2843797Y-12633452D02*
G03*
X2844813Y-12633452I508J-53879D01*
G75*
G01*
X1511300Y-17754600D02*
G02*
X1511300Y-17373600I-254000J190500D01*
G75*
G01*
X1789379Y-15415514D02*
G02*
X1489405Y-15405608I-149906J7392D01*
G75*
G01*
X2089353Y-15425420D02*
G02*
X1789379Y-15415514I-149906J7392D01*
G75*
G01*
X1488001Y-15409601D02*
G02*
X1220978Y-15490317I-148555J9406D01*
G75*
G01*
X2375090Y-15492379D02*
G02*
X2089404Y-15425547I-135570J64506D01*
G75*
G01*
X1038301Y-18130901D02*
G02*
X1138301Y-18030901I100000J0D01*
G75*
G01*
X2138299Y-18030901D02*
G02*
X2238299Y-18130901I0J-100000D01*
G75*
G01*
X2238299Y-19130899D02*
G02*
X2138299Y-19230899I-100000J0D01*
G75*
G01*
X1138301Y-19230899D02*
G02*
X1038301Y-19130899I0J100000D01*
G75*
G01
X2486660Y-11899900D02*
G03X2486660Y-11899900I-314960J0D01*
G75*
G01
X1511300Y-17564100D02*
G03X1511300Y-17564100I-254000J0D01*
G75*
G01
X1988820Y-18630900D02*
G03X1988820Y-18630900I-350520J0D01*
D32*
G75*
G01
X1219200Y-18181320D02*
G03X1219200Y-18181320I-30480J0D01*
G75*
G01
X2118360Y-18181320D02*
G03X2118360Y-18181320I-30480J0D01*
G75*
G01
X2118360Y-19080480D02*
G03X2118360Y-19080480I-30480J0D01*
G75*
G01
X1219200Y-19080480D02*
G03X1219200Y-19080480I-30480J0D01*
M02*
