G04 Layer: BottomSolderMaskLayer*
G04 EasyEDA v6.4.20.6, 2021-08-16T11:23:07+05:00*
G04 c3a099c2b70d45deafa0669b64b3af86,5b6d1f2078ba48c69a4fdbf02e9f565d,10*
G04 Gerber Generator version 0.2*
G04 Scale: 100 percent, Rotated: No, Reflected: No *
G04 Dimensions in millimeters *
G04 leading zeros omitted , absolute positions ,4 integer and 5 decimal *
%FSLAX45Y45*%
%MOMM*%

%ADD19C,1.7780*%
%ADD37C,2.2352*%
%ADD38C,2.0032*%
%ADD39C,2.3622*%
%ADD41C,2.0828*%
%ADD42C,1.7272*%
%ADD44C,1.9812*%
%ADD46C,1.8032*%
%ADD47C,2.2032*%
%ADD48C,2.7432*%
%ADD49C,1.8796*%

%LPD*%
D37*
X1651000Y-10845800D02*
G01*
X1651000Y-10896600D01*
X1905000Y-10845800D02*
G01*
X1905000Y-10896600D01*
X1397000Y-10845800D02*
G01*
X1397000Y-10896600D01*
D38*
X1929825Y-10040874D02*
G01*
X1689826Y-10040874D01*
X1689826Y-9440926D02*
G01*
X1929825Y-9440926D01*
X1339799Y-9860899D02*
G01*
X1339799Y-9620900D01*
D39*
G01*
X2070100Y-12674600D03*
G01*
X2070100Y-13690600D03*
G36*
X3373120Y-13835379D02*
G01*
X3373120Y-13647420D01*
X3561079Y-13647420D01*
X3561079Y-13835379D01*
G37*
G36*
X3589020Y-13835379D02*
G01*
X3589020Y-13647420D01*
X3776979Y-13647420D01*
X3776979Y-13835379D01*
G37*
G36*
X3804920Y-13835379D02*
G01*
X3804920Y-13647420D01*
X3992879Y-13647420D01*
X3992879Y-13835379D01*
G37*
D41*
G01*
X3162300Y-14274800D03*
G01*
X4178300Y-14274800D03*
G01*
X1790700Y-17703800D03*
G01*
X2806700Y-17703800D03*
G01*
X2806700Y-17373600D03*
G01*
X1790700Y-17373600D03*
D42*
G01*
X2298700Y-11899900D03*
G01*
X2044700Y-11899900D03*
G36*
X6921500Y-19456400D02*
G01*
X6921500Y-19278600D01*
X7099300Y-19278600D01*
X7099300Y-19456400D01*
G37*
D19*
G01*
X7264400Y-19367500D03*
G01*
X7518400Y-19367500D03*
G01*
X7772400Y-19367500D03*
G01*
X8026400Y-19367500D03*
G01*
X8280400Y-19367500D03*
G01*
X8534400Y-19367500D03*
G01*
X8788400Y-19367500D03*
G01*
X9042400Y-19367500D03*
D42*
G01*
X3124225Y-12852400D03*
G01*
X2874213Y-12852400D03*
G01*
X3374186Y-12852400D03*
G36*
X3393440Y-15377160D02*
G01*
X3393440Y-15179039D01*
X3591559Y-15179039D01*
X3591559Y-15377160D01*
G37*
D44*
G01*
X3492500Y-15532100D03*
G01*
X3492500Y-15786100D03*
G01*
X3492500Y-16040100D03*
G01*
X3492500Y-16294100D03*
G01*
X3492500Y-16548100D03*
G01*
X3492500Y-16802100D03*
G01*
X3492500Y-17056100D03*
G01*
X3492500Y-17310100D03*
G01*
X3492500Y-17564100D03*
G01*
X3492500Y-17818100D03*
G01*
X3492500Y-18072100D03*
G01*
X3492500Y-18326100D03*
G01*
X3492500Y-18580100D03*
G01*
X3492500Y-18834100D03*
G01*
X5016500Y-15278100D03*
G01*
X5016500Y-15532100D03*
G01*
X5016500Y-15786100D03*
G01*
X5016500Y-16040100D03*
G01*
X5016500Y-16294100D03*
G01*
X5016500Y-16548100D03*
G01*
X5016500Y-16802100D03*
G01*
X5016500Y-17056100D03*
G01*
X5016500Y-17310100D03*
G01*
X5016500Y-17564100D03*
G01*
X5016500Y-17818100D03*
G01*
X5016500Y-18072100D03*
G01*
X5016500Y-18326100D03*
G01*
X5016500Y-18580100D03*
G01*
X5016500Y-18834100D03*
G36*
X1040129Y-17654270D02*
G01*
X1040129Y-17473929D01*
X1220470Y-17473929D01*
X1220470Y-17654270D01*
G37*
D46*
G01*
X1384300Y-17564100D03*
D39*
G01*
X2679700Y-14338300D03*
G01*
X1663700Y-14338300D03*
D47*
G01*
X1320800Y-11751055D03*
G01*
X1320800Y-12251944D03*
G01*
X1320800Y-12919455D03*
G01*
X1320800Y-13420344D03*
D48*
G01*
X1178052Y-16559656D03*
G01*
X2377947Y-16559656D03*
G01*
X2377947Y-15339441D03*
G01*
X1178052Y-15339441D03*
G01*
X1778000Y-15139543D03*
D39*
G01*
X1013460Y-18381979D03*
G01*
X1013460Y-18879820D03*
G01*
X2263140Y-18879820D03*
G01*
X2263140Y-18381979D03*
G36*
X990600Y-14592300D02*
G01*
X990600Y-14414500D01*
X1168400Y-14414500D01*
X1168400Y-14592300D01*
G37*
D19*
G01*
X1079500Y-14249400D03*
D42*
G01*
X1079500Y-13995400D03*
D49*
G01*
X3416706Y-8976105D03*
G01*
X3670706Y-8976105D03*
G01*
X3924706Y-8976105D03*
G01*
X4178706Y-8976105D03*
G01*
X4432706Y-8976105D03*
G01*
X4686706Y-8976105D03*
G01*
X4940706Y-8976105D03*
G01*
X5194706Y-8976105D03*
G01*
X5448706Y-8976105D03*
G01*
X5702706Y-8976105D03*
G01*
X5956706Y-8976105D03*
G01*
X6210706Y-8976105D03*
G01*
X6464706Y-8976105D03*
G01*
X6718706Y-8976105D03*
G01*
X6972706Y-8976105D03*
G01*
X7226706Y-8976105D03*
M02*
